<svg xmlns="http://www.w3.org/2000/svg" width="px" height="80" viewBox="0 0 80 80"><path style="stroke:none;fill-rule:nonzero;fill:#264de4;fill-opacity:1" d="M11.148 72.004 4.73 0h70.54l-6.426 71.992L39.957 80zm0 0"/><path style="stroke:none;fill-rule:nonzero;fill:#2965f1;fill-opacity:1" d="m63.344 67.406 5.488-61.52H40V73.88zm0 0"/><path style="stroke:none;fill-rule:nonzero;fill:#ebebeb;fill-opacity:1" d="m19.445 32.594.793 8.828H40v-8.828zm-.785-9.043H40v-8.832H17.855zM40 55.527l-.04.012-9.835-2.656-.629-7.043h-8.863l1.238 13.863 18.09 5.024.039-.012zm0 0"/><path style="stroke:none;fill-rule:nonzero;fill:#fff;fill-opacity:1" d="M39.969 32.594v8.828h10.875L49.82 52.875l-9.851 2.66v9.188l18.105-5.02.133-1.492 2.074-23.246.215-2.371 1.594-17.875H39.969v8.832h12.445l-.805 9.043zm0 0"/></svg>