<svg xmlns="http://www.w3.org/2000/svg" width="px" height="80" viewBox="0 0 80 80"><path style="stroke:none;fill-rule:nonzero;fill:#000;fill-opacity:1" d="M80 61.988c-2.91.739-4.71.032-6.324-2.394L62.19 43.704l-1.66-2.2-13.414 18.144c-1.531 2.18-3.14 3.133-6 2.36l17.176-23.055L42.301 18.13c2.75-.535 4.652-.266 6.34 2.2l11.91 16.085 12-16c1.539-2.18 3.191-3.012 5.953-2.207L72.3 26.426l-8.399 10.937c-1 1.25-.863 2.106.059 3.313zM.02 38.566l1.406-6.91c3.824-13.672 19.5-19.355 30.308-10.906 6.317 4.969 7.887 12 7.575 19.875H3.699c-.535 14.176 9.668 22.73 22.676 18.363 4.563-1.531 7.25-5.101 8.594-9.574.683-2.238 1.812-2.59 3.918-1.95-1.075 5.59-3.5 10.263-8.625 13.184-7.657 4.375-18.586 2.961-24.336-3.12C2.5 54 1.086 49.53.449 44.75c-.097-.79-.3-1.543-.449-2.3.012-1.294.02-2.587.02-3.88zm3.746-.949h32.18c-.212-10.25-6.594-17.531-15.317-17.594-9.574-.074-16.45 7.036-16.863 17.594zm0 0"/></svg>