<svg xmlns="http://www.w3.org/2000/svg" width="px" height="80" viewBox="0 0 80 80"><path style="stroke:none;fill-rule:nonzero;fill:#ff8f00;fill-opacity:1" d="m13.332 61.668 25.39-47.61c.536-1 1.981-.984 2.493.036L50 31.668zm0 0"/><path style="stroke:none;fill-rule:nonzero;fill:#ffa000;fill-opacity:1" d="m13.332 61.652 9.246-56.996c.238-1.492 2.242-1.816 2.945-.476l17.809 34.14zm0 0"/><path style="stroke:none;fill-rule:nonzero;fill:#ff6f00;fill-opacity:1" d="m13.348 61.645.332-.262L42.895 37.48l-8.239-15.792zm0 0"/><path style="stroke:none;fill-rule:nonzero;fill:#ffc400;fill-opacity:1" d="m13.332 61.668 44.445-42.855c.93-.899 2.485-.372 2.676.91l6.215 41.945-25 14.57a3.338 3.338 0 0 1-3.27 0zm0 0"/></svg>