<svg xmlns="http://www.w3.org/2000/svg" width="px" height="80" viewBox="0 0 80 80"><path style="stroke:none;fill-rule:nonzero;fill:#599636;fill-opacity:1" d="m39.75.219 2.137 4.008c.476.742 1 1.394 1.61 2.007 1.788 1.786 3.487 3.657 5.01 5.664 3.618 4.75 6.06 10.024 7.802 15.73 1.043 3.485 1.613 7.06 1.652 10.673.176 10.808-3.527 20.09-11 27.8a31.428 31.428 0 0 1-3.922 3.356c-.742 0-1.09-.566-1.398-1.09-.567-.957-.914-2.05-1.09-3.137-.262-1.308-.434-2.617-.348-3.964v-.61C40.141 60.523 39.488.523 39.75.22zm0 0"/><path style="stroke:none;fill-rule:nonzero;fill:#6cac48;fill-opacity:1" d="M39.75.086c-.086-.176-.176-.043-.262.043.043.875-.261 1.652-.742 2.398-.523.739-1.219 1.309-1.918 1.918-3.875 3.356-6.922 7.407-9.367 11.942-3.25 6.097-4.922 12.636-5.398 19.52-.22 2.48.785 11.241 1.566 13.769 2.137 6.71 5.973 12.332 10.937 17.21 1.223 1.177 2.528 2.266 3.875 3.313.395 0 .438-.347.528-.61.172-.554.3-1.124.39-1.698l.875-6.536zm0 0"/><path style="stroke:none;fill-rule:nonzero;fill:#c2bfbf;fill-opacity:1" d="M41.887 72.113c.086-1 .566-1.832 1.09-2.66-.528-.215-.918-.648-1.223-1.129a8.185 8.185 0 0 1-.649-1.437c-.609-1.832-.742-3.75-.914-5.621v-1.133c-.218.176-.265 1.656-.265 1.875a42.641 42.641 0 0 1-.785 5.883c-.13.785-.215 1.566-.7 2.265 0 .086 0 .172.043.305.786 2.309 1 4.66 1.133 7.059v.875c0 1.046-.043.824.824 1.175.352.13.743.176 1.09.434.266 0 .305-.215.305-.39l-.129-1.438v-4.012c-.043-.7.09-1.394.176-2.05zm0 0"/></svg>