<svg xmlns="http://www.w3.org/2000/svg" width="px" height="80" viewBox="0 0 80 80"><path style="stroke:none;fill-rule:nonzero;fill:#8cc84b;fill-opacity:1" d="M36.64 1.066c2-1.132 4.551-1.136 6.5 0L73 17.898c1.867 1.051 3.117 3.133 3.102 5.286v33.75c.011 2.242-1.364 4.37-3.332 5.402L43.07 79.09a6.493 6.493 0 0 1-6.597-.184l-8.914-5.148c-.606-.363-1.29-.649-1.72-1.238.38-.508 1.056-.575 1.606-.801 1.239-.395 2.375-1 3.516-1.64.285-.2.64-.126.914.058l7.602 4.394c.539.313 1.09-.101 1.554-.363l29.164-16.457a.971.971 0 0 0 .532-.95V23.337c.039-.45-.22-.86-.625-1.043L40.477 5.609a1.023 1.023 0 0 0-1.164 0L9.73 22.324c-.402.184-.675.59-.625 1.04v33.425a.942.942 0 0 0 .536.938l7.906 4.46c1.484.801 3.308 1.25 4.941.665a3.752 3.752 0 0 0 2.43-3.524l.008-33.226c-.035-.493.43-.899.906-.848h3.8c.5-.016.891.516.825 1.012l-.008 33.433c.004 2.973-1.215 6.2-3.965 7.66-3.382 1.75-7.57 1.38-10.914-.3l-8.5-4.7c-2-1-3.343-3.16-3.332-5.402v-33.75a6.156 6.156 0 0 1 3.207-5.352zm8.61 23.395c4.316-.25 8.941-.164 12.824 1.965 3.008 1.629 4.676 5.05 4.73 8.394-.085.45-.554.7-.984.668-1.25-.004-2.504.016-3.761-.008-.532.02-.84-.468-.907-.94-.359-1.599-1.23-3.18-2.738-3.954-2.309-1.16-4.988-1.102-7.508-1.074-1.84.097-3.82.254-5.375 1.336-1.203.82-1.562 2.5-1.133 3.804.399.957 1.508 1.266 2.41 1.551 5.204 1.36 10.715 1.25 15.825 3.016 2.113.73 4.18 2.152 4.906 4.363.945 2.965.531 6.512-1.578 8.89-1.707 1.962-4.2 3-6.688 3.606-3.304.738-6.734.754-10.093.426-3.157-.363-6.442-1.191-8.88-3.34-2.085-1.812-3.1-4.633-3-7.352.024-.46.481-.78.927-.742h3.75c.503-.035.875.399.898.875.234 1.5.805 3.125 2.137 4 2.562 1.657 5.781 1.54 8.715 1.586 2.433-.105 5.164-.14 7.152-1.75 1.047-.918 1.355-2.449 1.074-3.77-.308-1.113-1.5-1.632-2.5-2-5.137-1.624-10.715-1.034-15.8-2.874-2.067-.73-4.063-2.11-4.856-4.23-1.106-3-.598-6.72 1.734-9.02 2.25-2.285 5.547-3.168 8.672-3.485zm0 0"/></svg>