<svg xmlns="http://www.w3.org/2000/svg" width="px" height="80" viewBox="0 0 80 80"><path style="stroke:none;fill-rule:nonzero;fill:#39c1d7;fill-opacity:1" d="M45.602 40a5.601 5.601 0 1 1-11.203 0 5.601 5.601 0 0 1 11.203 0zm0 0"/><path style="stroke:none;fill-rule:nonzero;fill:#1f212b;fill-opacity:1" d="M40 46.398A6.407 6.407 0 0 1 33.602 40 6.407 6.407 0 0 1 40 33.602 6.407 6.407 0 0 1 46.398 40 6.407 6.407 0 0 1 40 46.398zM40 35.2A4.805 4.805 0 0 0 35.2 40c0 2.648 2.152 4.8 4.8 4.8 2.648 0 4.8-2.152 4.8-4.8 0-2.648-2.152-4.8-4.8-4.8zm0 0"/><path style="stroke:none;fill-rule:nonzero;fill:#39c1d7;fill-opacity:1" d="M70.8 40c0-4.3-5.179-8.023-13.214-10.238 2.066-8.078 1.43-14.43-2.262-16.582-1.457-.852-3.222-1.008-5.25-.465-3.054.816-6.554 3.207-10.074 6.719-3.52-3.512-7.02-5.899-10.074-6.72-2.028-.542-3.793-.386-5.25.466-3.692 2.152-4.328 8.504-2.262 16.582C14.38 31.977 9.2 35.699 9.2 40c0 4.3 5.18 8.023 13.215 10.238-2.066 8.078-1.43 14.43 2.262 16.586.89.516 1.894.778 3.004.778.707 0 1.457-.106 2.246-.317C32.98 66.47 36.48 64.078 40 60.566c3.52 3.512 7.02 5.903 10.074 6.72.79.21 1.54.316 2.246.316 1.11 0 2.114-.258 3.004-.778 3.692-2.156 4.328-8.508 2.262-16.586C65.62 48.023 70.8 44.301 70.8 40zM50.696 15.031a6.371 6.371 0 0 1 1.614-.23c.687 0 1.293.148 1.804.449 2.473 1.445 2.98 6.738 1.137 13.93-2.54-.57-5.309-1-8.25-1.266-1.73-2.492-3.527-4.758-5.336-6.746 3.215-3.219 6.367-5.422 9.031-6.137zm-2.09 30.008a77.168 77.168 0 0 1-2.957 4.75C43.84 49.926 41.957 50 40 50c-1.957 0-3.84-.074-5.648-.21a75.698 75.698 0 0 1-5.59-9.79 77.67 77.67 0 0 1 2.636-5.04 75.29 75.29 0 0 1 2.954-4.75A74.912 74.912 0 0 1 40 30c1.957 0 3.84.074 5.648.21a77.168 77.168 0 0 1 2.957 4.75A79.553 79.553 0 0 1 51.238 40a77.487 77.487 0 0 1-2.633 5.04zm3.91-2.203a60.996 60.996 0 0 1 2.079 5.664c-1.82.406-3.785.746-5.883.996a82.367 82.367 0 0 0 1.977-3.27 80.273 80.273 0 0 0 1.828-3.39zM40 57.086a62.107 62.107 0 0 1-3.89-4.785 79.32 79.32 0 0 0 3.89.097c1.32 0 2.617-.035 3.89-.097A62.107 62.107 0 0 1 40 57.086zm-8.71-7.59a59.207 59.207 0 0 1-5.884-.996 60.996 60.996 0 0 1 2.078-5.664 80.273 80.273 0 0 0 1.828 3.39 79.643 79.643 0 0 0 1.977 3.27zm-3.806-12.332a60.645 60.645 0 0 1-2.078-5.668 60.287 60.287 0 0 1 5.887-.992 75.552 75.552 0 0 0-1.98 3.27 80.273 80.273 0 0 0-1.829 3.39zM40 22.914a62.107 62.107 0 0 1 3.89 4.785 79.32 79.32 0 0 0-3.89-.097c-1.32 0-2.617.035-3.89.097A62.107 62.107 0 0 1 40 22.914zm10.688 10.86a82.367 82.367 0 0 0-1.977-3.27c2.098.25 4.062.59 5.883.996a60.996 60.996 0 0 1-2.078 5.664 80.273 80.273 0 0 0-1.828-3.39zM25.887 15.25c.511-.3 1.117-.45 1.804-.45.497 0 1.036.079 1.614.231 2.664.715 5.816 2.914 9.03 6.137-1.808 1.988-3.605 4.254-5.335 6.742-2.941.266-5.71.695-8.25 1.27-1.844-7.196-1.336-12.485 1.137-13.93zM11.602 40c0-2.875 4.32-5.953 11.464-7.922A64.577 64.577 0 0 0 26.113 40a64.577 64.577 0 0 0-3.047 7.922C15.922 45.953 11.602 42.875 11.602 40zm17.703 24.969c-1.387.367-2.535.297-3.418-.219-2.473-1.445-2.977-6.734-1.137-13.93 2.54.575 5.309 1.004 8.25 1.27 1.727 2.488 3.523 4.754 5.336 6.742-3.215 3.223-6.367 5.422-9.031 6.137zm24.808-.219c-.883.516-2.031.586-3.418.219-2.664-.715-5.816-2.914-9.03-6.137 1.808-1.988 3.605-4.254 5.335-6.746 2.941-.266 5.71-.695 8.25-1.266 1.844 7.196 1.336 12.485-1.137 13.93zm2.82-16.828A64.577 64.577 0 0 0 53.888 40a64.577 64.577 0 0 0 3.047-7.922c7.144 1.969 11.464 5.047 11.464 7.922s-4.32 5.953-11.464 7.922zm0 0"/><path style="stroke:none;fill-rule:nonzero;fill:#1f212b;fill-opacity:1" d="M27.676 68c-1.176 0-2.254-.277-3.2-.832-3.706-2.164-4.628-8.223-2.542-16.648C13.578 48.145 8.8 44.32 8.8 40c0-4.32 4.777-8.145 13.133-10.52-2.086-8.425-1.164-14.484 2.543-16.648 1.55-.906 3.418-1.074 5.554-.504 2.973.797 6.414 3.059 9.969 6.543 3.555-3.484 6.996-5.746 9.969-6.543 2.136-.57 4.004-.402 5.558.504 3.703 2.164 4.625 8.223 2.54 16.648 8.355 2.375 13.132 6.2 13.132 10.52 0 4.32-4.777 8.145-13.133 10.52 2.086 8.425 1.164 14.484-2.539 16.648-1.543.898-3.43 1.074-5.554.504-2.977-.797-6.418-3.059-9.973-6.543-3.555 3.484-6.996 5.746-9.969 6.543-.82.219-1.61.328-2.351.328h-.004zm.008-55.2c-1.043 0-1.98.24-2.805.723-3.379 1.973-4.156 8.008-2.078 16.141a.399.399 0 0 1-.281.484C14.43 32.378 9.602 36.063 9.602 40c0 3.938 4.828 7.621 12.918 9.852.21.058.335.273.28.484-2.077 8.133-1.3 14.168 2.079 16.14.824.481 1.766.723 2.797.723h.004c.672 0 1.39-.101 2.144-.3 2.914-.782 6.34-3.07 9.895-6.618a.403.403 0 0 1 .562 0c3.555 3.547 6.98 5.836 9.895 6.617 1.918.512 3.59.368 4.945-.421 3.379-1.973 4.156-8.008 2.078-16.141a.399.399 0 0 1 .281-.484c8.09-2.23 12.918-5.914 12.918-9.852 0-3.938-4.828-7.621-12.918-9.852a.399.399 0 0 1-.28-.484c2.077-8.133 1.3-14.168-2.079-16.14-1.36-.794-3.023-.934-4.945-.422-2.918.78-6.34 3.07-9.895 6.617a.403.403 0 0 1-.562 0c-3.559-3.547-6.98-5.836-9.899-6.617a8.182 8.182 0 0 0-2.136-.301zm24.625 52.798a6.637 6.637 0 0 1-1.715-.243c-2.668-.714-5.852-2.875-9.215-6.242a.404.404 0 0 1-.012-.55c1.813-1.989 3.598-4.243 5.301-6.704a.411.411 0 0 1 .293-.172 62.99 62.99 0 0 0 8.2-1.257.403.403 0 0 1 .476.293c1.867 7.297 1.363 12.804-1.32 14.37-.579.337-1.247.505-2.008.505zm-10.09-6.782c3.16 3.118 6.12 5.106 8.578 5.766 1.281.34 2.328.281 3.113-.176 2.285-1.336 2.688-6.46 1.047-13.11a64.266 64.266 0 0 1-7.734 1.173 66.508 66.508 0 0 1-5.004 6.347zM27.69 65.598c-.761 0-1.43-.168-2.007-.5-2.684-1.57-3.192-7.078-1.32-14.375a.406.406 0 0 1 .476-.293c2.55.574 5.308 1 8.2 1.258a.411.411 0 0 1 .292.171c1.703 2.461 3.488 4.715 5.3 6.703a.4.4 0 0 1-.01.551c-3.364 3.367-6.548 5.528-9.212 6.242a6.863 6.863 0 0 1-1.719.243zm-2.648-14.301c-1.64 6.648-1.238 11.773 1.047 13.11.785.456 1.832.515 3.113.175 2.457-.66 5.418-2.652 8.578-5.766a66.489 66.489 0 0 1-5-6.347 64.214 64.214 0 0 1-7.738-1.172zM40 57.484a.391.391 0 0 1-.297-.132 61.504 61.504 0 0 1-3.918-4.813.4.4 0 0 1-.027-.426.385.385 0 0 1 .37-.21c2.645.128 5.099.128 7.743 0 .16-.012.3.074.371.21a.4.4 0 0 1-.027.426 62.24 62.24 0 0 1-3.918 4.813.391.391 0 0 1-.297.132zm-3.066-4.746c1 1.325 2.03 2.582 3.066 3.75a60.575 60.575 0 0 0 3.066-3.75c-2.09.082-4.043.082-6.132 0zM40 50.398c-1.895 0-3.805-.07-5.68-.207a.397.397 0 0 1-.3-.18 77.299 77.299 0 0 1-2.973-4.773 79.05 79.05 0 0 1-2.645-5.066.38.38 0 0 1 0-.344 79.05 79.05 0 0 1 2.645-5.066 79.78 79.78 0 0 1 2.973-4.778.404.404 0 0 1 .3-.175 77.646 77.646 0 0 1 11.36 0c.12.011.23.074.3.175a79.78 79.78 0 0 1 2.973 4.778 79.05 79.05 0 0 1 2.645 5.066.38.38 0 0 1 0 .344 79.05 79.05 0 0 1-2.645 5.066 77.299 77.299 0 0 1-2.973 4.774.409.409 0 0 1-.3.18 78.424 78.424 0 0 1-5.68.206zm-5.426-.992c3.582.258 7.27.258 10.852 0a79.396 79.396 0 0 0 2.832-4.566A76.08 76.08 0 0 0 50.793 40a76.08 76.08 0 0 0-2.535-4.84 77.28 77.28 0 0 0-2.832-4.566 76.222 76.222 0 0 0-10.852 0A75.275 75.275 0 0 0 29.204 40a76.134 76.134 0 0 0 2.538 4.84 77.28 77.28 0 0 0 2.832 4.566zm14.137.492a.403.403 0 0 1-.34-.617 79.99 79.99 0 0 0 1.969-3.25 81.531 81.531 0 0 0 1.82-3.375.398.398 0 0 1 .723.023 61.244 61.244 0 0 1 2.094 5.708.393.393 0 0 1-.04.316.403.403 0 0 1-.257.192 60.71 60.71 0 0 1-5.922 1c-.016 0-.031.003-.047.003zm3.766-6.113a75.04 75.04 0 0 1-2.977 5.207 57.345 57.345 0 0 0 4.582-.789c-.46-1.45-1-2.93-1.605-4.418zm-21.188 6.113c-.016 0-.031-.003-.047-.003a59.541 59.541 0 0 1-5.922-1.004.385.385 0 0 1-.258-.188.4.4 0 0 1-.039-.32 61.59 61.59 0 0 1 2.094-5.703c.059-.14.2-.239.352-.242.148-.016.3.078.37.218a81.531 81.531 0 0 0 1.821 3.375 82.773 82.773 0 0 0 1.969 3.25.403.403 0 0 1-.34.617zm-5.371-1.695a57.65 57.65 0 0 0 4.582.79 75.04 75.04 0 0 1-2.977-5.208 60.137 60.137 0 0 0-1.605 4.418zm31.016.117a.397.397 0 0 1-.383-.28c-.781-2.544-1.801-5.192-3.028-7.872a.419.419 0 0 1 0-.336c1.227-2.676 2.247-5.328 3.028-7.871a.397.397 0 0 1 .488-.266c7.254 1.996 11.762 5.18 11.762 8.305s-4.508 6.309-11.762 8.305a.345.345 0 0 1-.105.015zM54.328 40a65.675 65.675 0 0 1 2.871 7.43C63.773 45.555 68 42.656 68 40c0-2.656-4.227-5.555-10.8-7.43A65.391 65.391 0 0 1 54.327 40zm-31.262 8.32a.329.329 0 0 1-.105-.015c-7.254-1.996-11.762-5.18-11.762-8.305s4.508-6.309 11.762-8.305a.397.397 0 0 1 .488.266c.781 2.543 1.801 5.195 3.028 7.871a.39.39 0 0 1 0 .336c-1.227 2.68-2.247 5.328-3.024 7.871a.406.406 0 0 1-.387.281zm-.265-15.75C16.227 34.445 12 37.344 12 40c0 2.656 4.227 5.555 10.8 7.43A65.675 65.675 0 0 1 25.673 40a65.391 65.391 0 0 1-2.871-7.43zm29.715 4.996a.401.401 0 0 1-.356-.218 76.463 76.463 0 0 0-3.789-6.63.406.406 0 0 1 0-.429c.082-.129.23-.2.387-.184 2.05.247 4.043.582 5.922 1.004.11.024.203.09.261.188.055.098.067.21.036.32a61.843 61.843 0 0 1-2.09 5.703.407.407 0 0 1-.356.246h-.015zm-1.48-3.992a78.64 78.64 0 0 1 1.44 2.64 58.796 58.796 0 0 0 1.602-4.417 57.043 57.043 0 0 0-4.582-.79c.566.903 1.074 1.75 1.54 2.567zm-23.552 3.992h-.015a.407.407 0 0 1-.356-.246 61.429 61.429 0 0 1-2.09-5.703.417.417 0 0 1 .036-.32.415.415 0 0 1 .261-.188 59.541 59.541 0 0 1 5.922-1.004.402.402 0 0 1 .387.614 74.223 74.223 0 0 0-1.969 3.254 78.743 78.743 0 0 0-1.82 3.375.401.401 0 0 1-.356.218zm-1.566-5.77c.46 1.454 1 2.934 1.605 4.419a75.04 75.04 0 0 1 2.977-5.207 57.65 57.65 0 0 0-4.582.789zm29.332-2.218a.639.639 0 0 1-.086-.008c-2.55-.574-5.312-1-8.203-1.258a.411.411 0 0 1-.293-.171c-1.703-2.461-3.488-4.715-5.3-6.703a.4.4 0 0 1 .01-.551c3.364-3.367 6.548-5.528 9.216-6.239 1.492-.402 2.75-.312 3.722.258 2.684 1.567 3.192 7.074 1.32 14.371a.4.4 0 0 1-.386.301zm-8.031-2.047c2.715.25 5.316.645 7.738 1.172 1.64-6.648 1.238-11.773-1.047-13.11-.781-.456-1.832-.515-3.113-.175-2.457.66-5.422 2.652-8.582 5.766a65.893 65.893 0 0 1 5.004 6.347zM24.75 29.578a.4.4 0 0 1-.387-.3c-1.87-7.298-1.363-12.805 1.32-14.372.973-.57 2.231-.66 3.723-.258 2.668.715 5.852 2.872 9.211 6.239a.4.4 0 0 1 .016.55c-1.813 1.989-3.598 4.243-5.305 6.704a.397.397 0 0 1-.293.172 63.093 63.093 0 0 0-8.2 1.257.639.639 0 0 1-.085.008zm1.34-13.984c-2.285 1.336-2.688 6.46-1.047 13.11a64.266 64.266 0 0 1 7.734-1.173 67.135 67.135 0 0 1 5.004-6.347c-3.16-3.118-6.12-5.106-8.582-5.766-1.273-.34-2.324-.281-3.11.176zm17.8 12.504h-.019a77.549 77.549 0 0 0-7.742 0 .392.392 0 0 1-.371-.211.392.392 0 0 1 .031-.426 63.22 63.22 0 0 1 3.914-4.816.42.42 0 0 1 .594 0 62.488 62.488 0 0 1 3.918 4.816c.09.125.101.289.031.426a.41.41 0 0 1-.355.21zM40 27.199c.992 0 2.023.024 3.066.063A60.733 60.733 0 0 0 40 23.516a60.733 60.733 0 0 0-3.066 3.746A82.466 82.466 0 0 1 40 27.199zm0 0"/></svg>