<svg xmlns="http://www.w3.org/2000/svg" width="px" height="80" viewBox="0 0 84 80"><path style="stroke:none;fill-rule:evenodd;fill:#764abc;fill-opacity:1" d="M58.203 55.871c3.102-.32 5.453-3.004 5.344-6.219-.106-3.218-2.777-5.793-5.984-5.793h-.215c-3.313.11-5.88 2.899-5.774 6.223.11 1.605.75 3 1.711 3.965-3.633 7.187-9.191 12.441-17.531 16.836-5.664 3.004-11.543 4.078-17.422 3.328-4.809-.645-8.55-2.79-10.902-6.328-3.422-5.254-3.742-10.938-.856-16.621 2.031-4.078 5.239-7.078 7.27-8.582-.43-1.395-1.07-3.754-1.39-5.47-15.5 11.263-13.9 26.49-9.196 33.673 3.531 5.363 10.691 8.687 18.601 8.687 2.137 0 4.274-.215 6.414-.75 13.68-2.68 24.051-10.832 29.93-22.949zm18.813-13.297c-8.121-9.543-20.094-14.8-33.778-14.8h-1.71c-.962-1.93-2.993-3.215-5.239-3.215h-.215c-3.312.105-5.875 2.894-5.77 6.218.106 3.22 2.778 5.79 5.985 5.79h.215a6.016 6.016 0 0 0 5.238-3.645h1.922c8.125 0 15.82 2.36 22.77 6.969 5.343 3.539 9.195 8.152 11.332 13.726 1.816 4.508 1.71 8.903-.215 12.656-2.992 5.684-8.016 8.793-14.645 8.793-4.273 0-8.336-1.285-10.476-2.25-1.176 1.07-3.313 2.786-4.809 3.86C52.22 78.82 56.921 80 61.411 80c10.26 0 17.85-5.684 20.737-11.367 3.098-6.219 2.887-16.945-5.132-26.059zM22.715 57.695c.105 3.215 2.777 5.79 5.984 5.79h.215c3.313-.106 5.879-2.895 5.773-6.22-.109-3.218-2.78-5.792-5.988-5.792h-.21c-.216 0-.536 0-.75.109-4.384-7.293-6.2-15.227-5.56-23.809.43-6.433 2.567-12.007 6.31-16.62 3.097-3.97 9.085-5.9 13.144-6.005 11.332-.214 16.14 13.942 16.465 19.625 1.386.32 3.738 1.07 5.343 1.606C62.156 9.008 51.47 0 41.207 0c-9.621 0-18.492 6.969-22.02 17.266-4.917 13.726-1.71 26.918 4.274 37.32-.531.75-.852 1.93-.746 3.11zm0 0"/></svg>