<svg xmlns="http://www.w3.org/2000/svg" width="px" height="80" viewBox="0 0 134 80"><path style="stroke:none;fill-rule:evenodd;fill:#06b6d4;fill-opacity:1" d="M67 0C49.227 0 38.113 8.89 33.664 26.668c6.672-8.887 14.45-12.219 23.332-10 5.078 1.266 8.68 4.945 12.715 9.016 6.512 6.636 14.11 14.312 30.625 14.312 17.773 0 28.887-8.89 33.332-26.668-6.66 8.89-14.438 12.227-23.328 10-5.078-1.27-8.68-4.945-12.719-9.02C91.09 7.642 83.527 0 67 0zM33.664 39.996c-17.773 0-28.887 8.887-33.332 26.664 6.676-8.883 14.453-12.219 23.328-9.996 5.078 1.266 8.68 4.941 12.719 9.027C42.887 72.316 50.484 80 67 80c17.773 0 28.887-8.89 33.336-26.668-6.664 8.887-14.441 12.211-23.332 9.977-5.078-1.266-8.68-4.942-12.715-9.016-6.512-6.637-14.11-14.32-30.625-14.32zm0 0"/></svg>