<svg xmlns="http://www.w3.org/2000/svg" width="24" height="px" viewBox="0 0 24 24"><path style="stroke:none;fill-rule:nonzero;fill:#fff;fill-opacity:1" d="M12 0C5.375 0 0 5.371 0 12c0 5.3 3.438 9.8 8.207 11.387.598.11.793-.262.793-.578v-2.235c-3.34.727-4.031-1.414-4.031-1.414-.547-1.387-1.336-1.758-1.336-1.758-1.086-.742.086-.726.086-.726 1.203.082 1.836 1.234 1.836 1.234 1.07 1.836 2.808 1.305 3.492 1 .11-.777.418-1.305.762-1.605-2.664-.305-5.465-1.332-5.465-5.93 0-1.313.468-2.383 1.234-3.223-.125-.3-.535-1.523.117-3.175 0 0 1.008-.32 3.301 1.23A11.487 11.487 0 0 1 12 5.805c1.02.004 2.047.136 3.008.402 2.289-1.55 3.297-1.23 3.297-1.23.652 1.652.242 2.875.117 3.175.77.84 1.234 1.91 1.234 3.223 0 4.61-2.808 5.621-5.48 5.922.43.371.824 1.101.824 2.219v3.293c0 .32.191.695.8.578C20.567 21.797 24 17.3 24 12c0-6.629-5.371-12-12-12zm0 0"/></svg>