<svg xmlns="http://www.w3.org/2000/svg" width="24" height="px" viewBox="0 0 24 24"><path style="stroke:none;fill-rule:evenodd;fill:#fff;fill-opacity:1" d="M12.004 0c6.625 0 12.004 5.371 12.004 12.004 0 6.625-5.371 12.004-12.004 12.004C5.379 24.008 0 18.637 0 12.004 0 5.379 5.371 0 12.004 0zm-1.547 9.621h2.461v1.258h.035c.348-.617 1.184-1.258 2.434-1.258 2.601 0 3.082 1.621 3.082 3.723v4.289h-2.57v-3.801c0-.906-.02-2.074-1.34-2.074-1.34 0-1.54.988-1.54 2.012v3.863h-2.57V9.62zM8.676 7.395c0 .734-.598 1.34-1.34 1.34a1.339 1.339 0 1 1 1.34-1.34zM6.004 9.62h2.672v8.012H6.004zm0 0"/></svg>