<svg xmlns="http://www.w3.org/2000/svg" width="24" height="24"><path style="stroke:none;fill-rule:nonzero;fill:#fff;fill-opacity:1" d="M21.441 20.883H2.531a2.399 2.399 0 0 1-2.398-2.399V5.488A2.401 2.401 0 0 1 2.53 3.09h18.91a2.401 2.401 0 0 1 2.399 2.398v12.996a2.399 2.399 0 0 1-2.399 2.399zM2.531 4.672a.82.82 0 0 0-.82.816v12.996c0 .45.367.82.82.82h18.91c.454 0 .82-.37.82-.82V5.488a.82.82 0 0 0-.82-.816zm0 0"/><path style="stroke:none;fill-rule:nonzero;fill:#fff;fill-opacity:1" d="M11.988 14.734a5.1 5.1 0 0 1-3.754-1.656L.79 4.906l1.168-1.062 7.445 8.168a3.467 3.467 0 0 0 2.586 1.14c.992 0 1.91-.406 2.582-1.14l7.446-8.168 1.168 1.062-7.446 8.172a5.097 5.097 0 0 1-3.75 1.656zm0 0"/><path style="stroke:none;fill-rule:nonzero;fill:#fff;fill-opacity:1" d="m.832 19.063 7.242-7.282 1.121 1.117-7.242 7.278zM14.781 12.898l1.117-1.117 7.247 7.281-1.122 1.118zm0 0"/></svg>