<svg xmlns="http://www.w3.org/2000/svg" width="px" height="40" viewBox="0 0 40 40"><path style="stroke:none;fill-rule:nonzero;fill:#000;fill-opacity:1" d="M40 30.992c-1.453.371-2.355.02-3.164-1.195l-5.742-7.945-.828-1.098-6.707 9.07c-.766 1.09-1.57 1.567-3 1.18l8.586-11.527-7.993-10.415c1.375-.265 2.325-.128 3.168 1.102l5.957 8.043 6-8c.77-1.09 1.594-1.504 2.973-1.102l-3.098 4.11-4.199 5.469c-.5.625-.433 1.05.027 1.656zM.012 19.285l.699-3.457c1.914-6.836 9.75-9.68 15.156-5.453 3.16 2.484 3.945 6 3.79 9.938H1.851c-.27 7.085 4.832 11.363 11.335 9.183 2.282-.766 3.626-2.555 4.297-4.789.344-1.121.907-1.293 1.961-.973-.539 2.793-1.75 5.13-4.312 6.59-3.832 2.188-9.297 1.48-12.172-1.558C1.25 27 .543 24.766.227 22.375c-.051-.395-.153-.77-.227-1.148.008-.649.012-1.293.012-1.942zm1.87-.476h16.09c-.105-5.125-3.296-8.766-7.656-8.797-4.789-.035-8.226 3.515-8.433 8.797zm0 0"/></svg>