<svg xmlns="http://www.w3.org/2000/svg" width="px" height="40" viewBox="0 0 40 40"><path style="stroke:none;fill-rule:nonzero;fill:#ff8f00;fill-opacity:1" d="m6.668 30.832 12.695-23.8a.698.698 0 0 1 1.242.015L25 15.832zm0 0"/><path style="stroke:none;fill-rule:nonzero;fill:#ffa000;fill-opacity:1" d="m6.668 30.828 4.621-28.5c.121-.746 1.121-.906 1.473-.238l8.906 17.07zm0 0"/><path style="stroke:none;fill-rule:nonzero;fill:#ff6f00;fill-opacity:1" d="m6.672 30.82.168-.129 14.61-11.953-4.122-7.894zm0 0"/><path style="stroke:none;fill-rule:nonzero;fill:#ffc400;fill-opacity:1" d="M6.668 30.832 28.887 9.406a.796.796 0 0 1 1.34.457l3.105 20.969-12.5 7.29a1.685 1.685 0 0 1-1.633 0zm0 0"/></svg>