<svg xmlns="http://www.w3.org/2000/svg" width="px" height="40" viewBox="0 0 40 40"><path style="stroke:none;fill-rule:nonzero;fill:#f7df1e;fill-opacity:1" d="M0 0h40v40H0zm36.723 30.46c-.29-1.823-1.48-3.358-5.004-4.788-1.227-.574-2.59-.977-2.996-1.902-.149-.547-.176-.848-.075-1.172.25-1.078 1.524-1.403 2.524-1.102.652.2 1.25.7 1.625 1.5 1.726-1.125 1.726-1.125 2.926-1.875-.45-.7-.672-1-.977-1.3-1.047-1.176-2.45-1.774-4.723-1.723l-1.175.148c-1.125.274-2.2.875-2.848 1.676-1.902 2.152-1.352 5.902.95 7.45 2.273 1.702 5.597 2.073 6.023 3.675.402 1.95-1.45 2.574-3.274 2.351-1.351-.3-2.101-.976-2.926-2.226l-3.05 1.75c.351.8.75 1.148 1.351 1.848 2.899 2.93 10.149 2.777 11.45-1.672.05-.149.398-1.176.124-2.75zM21.75 18.388h-3.746c0 3.226-.016 6.437-.016 9.672 0 2.054.106 3.941-.226 4.52-.551 1.148-1.969 1-2.614.8-.66-.328-.992-.777-1.382-1.426-.106-.176-.184-.324-.211-.324l-3.04 1.875c.508 1.047 1.25 1.953 2.204 2.527 1.426.852 3.34 1.125 5.347.676 1.305-.379 2.43-1.152 3.016-2.352.852-1.55.672-3.449.664-5.578.02-3.422 0-6.847 0-10.297zm0 0"/></svg>