<svg xmlns="http://www.w3.org/2000/svg" width="px" height="40" viewBox="0 0 40 40"><path style="stroke:none;fill-rule:nonzero;fill:#8cc84b;fill-opacity:1" d="M18.32.535c1-.566 2.274-.57 3.25 0L36.5 8.95c.934.528 1.559 1.567 1.55 2.645v16.875c.005 1.12-.679 2.183-1.663 2.699l-14.852 8.379a3.255 3.255 0 0 1-3.3-.094L13.78 36.88c-.304-.18-.644-.324-.86-.617.188-.258.528-.29.802-.403.62-.195 1.187-.5 1.757-.82.145-.098.32-.062.457.027l3.801 2.2c.27.156.547-.051.778-.184l14.582-8.227a.485.485 0 0 0 .265-.476V11.668a.526.526 0 0 0-.312-.523l-14.813-8.34a.512.512 0 0 0-.582 0l-14.793 8.36a.516.516 0 0 0-.312.515v16.715a.477.477 0 0 0 .27.468l3.952 2.23c.743.4 1.653.626 2.473.333a1.877 1.877 0 0 0 1.211-1.762l.004-16.613c-.016-.246.215-.45.457-.426h1.898c.25-.004.446.262.414.508l-.003 16.719c0 1.484-.61 3.097-1.985 3.828-1.691.875-3.785.691-5.457-.153l-4.25-2.347c-1-.5-1.672-1.582-1.664-2.7V11.605a3.079 3.079 0 0 1 1.602-2.68zm4.305 11.695c2.16-.125 4.469-.082 6.414.98 1.504.817 2.336 2.528 2.363 4.2-.043.227-.277.352-.492.332-.625 0-1.254.012-1.879-.004-.265.012-.422-.234-.453-.468-.183-.801-.617-1.59-1.371-1.977-1.156-.578-2.496-.55-3.754-.54-.922.052-1.91.13-2.687.669-.602.41-.782 1.25-.567 1.906.2.477.754.629 1.203.774 2.606.68 5.36.625 7.914 1.507 1.055.368 2.09 1.075 2.454 2.184.472 1.48.265 3.254-.79 4.441-.855.98-2.097 1.5-3.343 1.805-1.653.367-3.367.379-5.047.211-1.578-.18-3.223-.594-4.442-1.668-1.039-.906-1.546-2.316-1.5-3.676.016-.23.243-.39.465-.37h1.875c.25-.02.438.198.45.437.117.75.402 1.562 1.066 2 1.285.828 2.89.77 4.36.793 1.214-.055 2.581-.07 3.573-.875.528-.457.68-1.223.54-1.883-.153-.559-.75-.817-1.25-1-2.57-.813-5.356-.52-7.899-1.438-1.035-.367-2.031-1.054-2.43-2.117-.554-1.5-.3-3.36.868-4.508 1.125-1.144 2.773-1.586 4.336-1.742zm0 0"/></svg>