<svg xmlns="http://www.w3.org/2000/svg" width="px" height="40" viewBox="0 0 41 40"><path style="stroke:none;fill-rule:nonzero;fill:#764abc;fill-opacity:1" d="M28.41 27.824c1.512-.16 2.66-1.496 2.606-3.097-.051-1.602-1.356-2.883-2.922-2.883h-.102c-1.617.054-2.87 1.441-2.816 3.097.05.801.363 1.497.832 1.977-1.774 3.578-4.485 6.191-8.555 8.383-2.765 1.496-5.637 2.031-8.504 1.656-2.347-.32-4.176-1.39-5.324-3.152-1.668-2.617-1.824-5.446-.418-8.278.992-2.027 2.559-3.523 3.55-4.273-.21-.692-.523-1.867-.679-2.723-7.566 5.61-6.781 13.192-4.488 16.77 1.722 2.672 5.219 4.324 9.078 4.324 1.043 0 2.09-.105 3.133-.371 6.676-1.336 11.738-5.395 14.61-11.43zm9.18-6.62c-3.965-4.755-9.809-7.372-16.485-7.372h-.835a2.859 2.859 0 0 0-2.555-1.602h-.106c-1.617.055-2.87 1.442-2.816 3.098.05 1.602 1.355 2.883 2.922 2.883h.101c1.149-.05 2.141-.8 2.559-1.816h.938c3.964 0 7.722 1.175 11.113 3.472 2.61 1.762 4.488 4.059 5.531 6.836.887 2.242.836 4.434-.105 6.3-1.461 2.833-3.914 4.38-7.149 4.38-2.086 0-4.066-.64-5.113-1.121a30.076 30.076 0 0 1-2.348 1.922c2.246 1.07 4.54 1.656 6.73 1.656 5.012 0 8.715-2.832 10.126-5.66 1.511-3.098 1.406-8.438-2.508-12.977zM11.086 28.73c.055 1.606 1.355 2.887 2.922 2.887h.105c1.617-.055 2.871-1.441 2.817-3.097-.051-1.602-1.356-2.883-2.922-2.883h-.106c-.101 0-.257 0-.363.05-2.14-3.628-3.027-7.582-2.715-11.855.211-3.203 1.254-5.98 3.078-8.277 1.516-1.977 4.438-2.938 6.418-2.989 5.532-.109 7.88 6.942 8.035 9.77.68.16 1.829.535 2.61.8C30.34 4.489 25.12 0 20.113 0c-4.695 0-9.027 3.473-10.75 8.598-2.398 6.836-.832 13.406 2.09 18.586-.262.375-.418.96-.367 1.546zm0 0"/></svg>